<svg width="39" height="51" viewBox="0 0 39 51" fill="none" xmlns="http://www.w3.org/2000/svg">
<path d="M6.88372 1H12.7674L16.5116 2.03279L19.7209 4.09836L14.3721 4.61475L9.55814 4.09836L7.4186 6.68033L6.88372 9.77869L12.2326 20.1066V21.1393V26.8197L11.6977 27.8525L9.02326 35.5984V40.2459L8.48837 44.8934L9.55814 46.959L10.093 50.0574H9.55814L7.4186 48.5082L5.81395 46.4426V44.3771V37.1475L6.88372 31.4672L7.95349 27.3361V24.7541V23.2049V21.6557L6.88372 19.5902L3.67442 14.9426L1.53488 9.2623L1 7.19672L1.53488 5.13115L3.13953 2.54918L6.88372 1Z" fill="#C4A060" stroke="#C4A060" stroke-width="0.5" stroke-linejoin="round"/>
<path d="M30.9535 28.8853L29.8838 29.4017L28.2791 27.3361L27.2093 24.2377L26.6745 21.6558L27.7442 19.0738L31.4884 13.3935L32.0233 9.77871L29.3489 8.22953L25.0698 7.71313H20.2559L22.3954 6.16395L24.5349 5.13116H30.9535L33.628 5.64756L35.7675 6.68035L37.3721 8.22953L37.907 9.77871L37.3721 11.3279L35.2326 13.9099L33.628 15.9754L32.5582 17.5246L31.4884 19.0738L30.9535 20.623V28.8853Z" fill="#C4A060" stroke="#C4A060" stroke-width="0.5" stroke-linejoin="round"/>
<path d="M16.5117 32.5L18.1164 31.9836V33.0164V34.0492L13.8373 42.3115V45.4098V46.959L13.3024 48.5082L12.2326 50.0574L11.6978 47.4754V44.8934V42.3115L12.7675 39.2131L16.5117 32.5Z" fill="#C4A060"/>
<path d="M12.2326 50.0574L11.6978 47.4754V44.8934V42.3115L12.7675 39.2131L16.5117 32.5L18.1164 31.9836V33.0164V34.0492L13.8373 42.3115V45.4098M12.2326 50.0574L12.7675 48.5082L13.8373 45.4098M12.2326 50.0574L13.3024 48.5082L13.8373 46.959V45.4098" stroke="#C4A060" stroke-width="0.5" stroke-linejoin="round"/>
<path d="M36.0938 48H33.832V40.1133H25.2305V48H22.9805V30.9375H25.2305V38.2734H33.832V30.9375H36.0938V48Z" fill="#004789"/>
</svg>
