<svg width="139" height="64" fill="none" xmlns="http://www.w3.org/2000/svg"><path d="M29.63 33.071h-3.546v9.781h-1.961v-9.78h-3.516v-1.595h9.024v1.594zm5.055 9.781c-.083-.161-.156-.424-.218-.789a2.955 2.955 0 0 1-2.219.946c-.849 0-1.542-.242-2.078-.727-.537-.484-.805-1.083-.805-1.797 0-.9.334-1.59 1-2.07.672-.484 1.63-.727 2.875-.727h1.164v-.554c0-.438-.122-.787-.367-1.047-.245-.266-.617-.399-1.117-.399-.432 0-.787.11-1.063.328a.993.993 0 0 0-.414.82h-1.898c0-.463.154-.895.46-1.296.308-.406.725-.724 1.25-.953a4.433 4.433 0 0 1 1.774-.344c.99 0 1.779.25 2.367.75.589.495.891 1.193.907 2.094v3.812c0 .76.107 1.367.32 1.82v.133h-1.938zM32.6 41.485c.375 0 .726-.09 1.054-.273.334-.183.584-.427.75-.735v-1.593h-1.023c-.703 0-1.232.122-1.586.367-.354.245-.531.591-.531 1.039 0 .364.12.656.359.875.245.214.57.32.977.32zm7.453-7.086l.054.977c.625-.755 1.446-1.133 2.461-1.133 1.76 0 2.657 1.008 2.688 3.023v5.586h-1.899v-5.476c0-.537-.117-.932-.351-1.188-.23-.26-.607-.39-1.133-.39-.766 0-1.336.346-1.71 1.039v6.015h-1.9V34.4h1.79zm6.789 4.164c0-1.302.302-2.346.906-3.132.604-.792 1.414-1.188 2.43-1.188.896 0 1.62.313 2.172.938v-4.329h1.898v12h-1.719l-.094-.875c-.567.688-1.325 1.032-2.273 1.032-.99 0-1.792-.399-2.406-1.196-.61-.797-.914-1.88-.914-3.25zm1.898.164c0 .86.164 1.532.492 2.016.334.48.805.719 1.415.719.776 0 1.343-.347 1.703-1.04v-3.609c-.35-.677-.912-1.015-1.688-1.015-.614 0-1.088.245-1.422.734-.333.485-.5 1.216-.5 2.195zm9.508 4.125H56.35v-12h1.898v12zm10.899.157c-1.318 0-2.342-.42-3.07-1.258-.34.4-.787.71-1.345.93-.557.218-1.184.328-1.882.328-.917 0-1.636-.23-2.157-.688-.52-.458-.78-1.094-.78-1.906 0-.823.309-1.458.929-1.906.62-.448 1.536-.672 2.75-.672h1.492v-.555c0-.474-.125-.844-.375-1.11-.245-.27-.596-.405-1.055-.405-.474 0-.862.117-1.164.351-.297.23-.445.516-.445.86l-1.89-.149c0-.76.327-1.38.984-1.86.661-.484 1.505-.726 2.53-.726 1.162 0 2.032.346 2.61 1.04.683-.704 1.545-1.05 2.586-1.04 1.104 0 1.966.339 2.586 1.016.62.672.93 1.62.93 2.843v1.07h-5.43c.047.725.268 1.292.664 1.704.396.411.943.617 1.64.617.714 0 1.35-.151 1.907-.453l.477-.266.57 1.297c-.365.292-.82.521-1.367.688a5.731 5.731 0 0 1-1.695.25zm-5.93-1.438c.302 0 .63-.075.984-.226.354-.157.649-.347.883-.57v-1.633h-1.531c-.542.01-.969.14-1.281.39-.313.245-.47.55-.47.914 0 .339.12.612.36.82.245.204.596.305 1.055.305zm5.648-5.804c-.515 0-.94.18-1.273.539-.328.359-.534.87-.617 1.53h3.53v-.234c0-.588-.142-1.041-.429-1.359-.281-.318-.685-.477-1.21-.477zm4.64 2.796c0-1.312.308-2.359.923-3.14.62-.787 1.44-1.18 2.46-1.18.964 0 1.722.336 2.274 1.008l.086-.852h1.711v8.196c0 1.109-.346 1.984-1.04 2.625-.687.64-1.616.96-2.788.96a4.49 4.49 0 0 1-1.82-.39c-.589-.255-1.037-.591-1.344-1.008l.898-1.14c.584.692 1.302 1.039 2.157 1.039.63 0 1.127-.172 1.492-.516.364-.339.547-.839.547-1.5v-.57c-.547.609-1.277.914-2.188.914-.99 0-1.8-.394-2.43-1.18-.625-.786-.937-1.875-.937-3.266zm1.892.164c0 .85.171 1.519.515 2.008.35.485.83.727 1.445.727.766 0 1.334-.328 1.704-.985V36.76c-.36-.64-.922-.961-1.688-.961-.625 0-1.112.247-1.46.742-.345.495-.516 1.224-.516 2.187zm11.242 4.282c-1.203 0-2.18-.378-2.93-1.133-.745-.76-1.117-1.77-1.117-3.031v-.235c0-.843.161-1.596.484-2.258a3.737 3.737 0 0 1 1.375-1.554 3.625 3.625 0 0 1 1.969-.555c1.151 0 2.039.367 2.664 1.102.63.734.945 1.773.945 3.117v.765h-5.523c.057.698.289 1.25.695 1.657.412.406.927.61 1.547.61.87 0 1.578-.352 2.125-1.056l1.023.977a3.44 3.44 0 0 1-1.359 1.18c-.562.276-1.195.414-1.898.414zm-.227-7.242c-.52 0-.943.182-1.266.546-.317.365-.52.873-.609 1.524h3.617v-.14c-.041-.636-.21-1.115-.507-1.438-.297-.328-.709-.492-1.235-.492zm6.969-.446c.62-.719 1.403-1.078 2.351-1.078 1.802 0 2.717 1.029 2.743 3.086v5.523h-1.899V37.4c0-.583-.127-.995-.383-1.234-.25-.245-.62-.367-1.109-.367-.76 0-1.328.338-1.703 1.015v6.04h-1.899v-12h1.899v4.468zm12.14 6.703c-.557.657-1.348.985-2.375.985-.916 0-1.611-.269-2.085-.805-.469-.536-.704-1.313-.704-2.328v-5.477h1.899v5.453c0 1.073.445 1.61 1.336 1.61.922 0 1.544-.33 1.867-.992V34.4h1.898v8.452h-1.789l-.047-.828zm8.508-1.468a.857.857 0 0 0-.422-.774c-.276-.177-.737-.333-1.382-.469-.646-.135-1.185-.307-1.618-.515-.947-.459-1.421-1.123-1.421-1.992 0-.73.307-1.339.921-1.829.615-.49 1.396-.734 2.344-.734 1.011 0 1.826.25 2.445.75.625.5.938 1.148.938 1.945h-1.898c0-.364-.136-.666-.407-.906-.271-.245-.63-.367-1.078-.367-.416 0-.758.096-1.023.289a.913.913 0 0 0-.391.773.77.77 0 0 0 .367.68c.245.162.74.326 1.485.492.744.162 1.328.357 1.75.586.427.224.742.495.945.813.208.317.312.703.312 1.156 0 .76-.315 1.378-.945 1.852-.63.468-1.456.703-2.476.703-.693 0-1.31-.125-1.852-.375s-.963-.594-1.266-1.032a2.441 2.441 0 0 1-.453-1.414h1.844c.026.448.195.795.508 1.04.312.239.726.359 1.242.359.5 0 .88-.094 1.141-.281a.893.893 0 0 0 .39-.75zm7.25 2.453c-1.203 0-2.179-.378-2.929-1.133-.745-.76-1.118-1.77-1.118-3.031v-.235c0-.843.162-1.596.485-2.258.328-.666.786-1.184 1.375-1.554a3.624 3.624 0 0 1 1.969-.555c1.151 0 2.039.367 2.664 1.102.63.734.945 1.773.945 3.117v.765h-5.524c.058.698.29 1.25.696 1.657.411.406.927.61 1.547.61.869 0 1.578-.352 2.125-1.056l1.023.977a3.44 3.44 0 0 1-1.359 1.18c-.563.276-1.196.414-1.899.414zm-.226-7.242c-.521 0-.943.182-1.266.546-.318.365-.521.873-.609 1.524h3.617v-.14c-.042-.636-.211-1.115-.508-1.438-.297-.328-.708-.492-1.234-.492zm7.476-3.422v2.054h1.492v1.407h-1.492v4.718c0 .323.063.558.188.703.13.141.359.211.687.211.219 0 .44-.026.664-.078v1.469c-.432.12-.849.18-1.25.18-1.458 0-2.187-.805-2.187-2.414v-4.79h-1.391V34.4h1.391v-2.054h1.898z" fill="#666"/><path d="M6.884 1h5.883l3.745 1.033 3.209 2.065-5.349.517-4.814-.517-2.14 2.582-.534 3.099 5.349 10.328v6.712l-.535 1.034-2.675 7.745v4.648l-.535 4.647 1.07 2.066.535 3.098h-.535l-2.14-1.549-1.604-2.065v-9.296l1.07-5.68 1.07-4.13v-5.681l-1.07-2.066-3.21-4.647-2.14-5.68L1 7.196l.535-2.066L3.14 2.55 6.884 1zM30.953 28.885l-1.07.517-1.604-2.066-1.07-3.098-.535-2.582 1.07-2.582 3.744-5.68.535-3.615-2.674-1.55-4.28-.516h-4.813l2.14-1.55 2.139-1.032h6.418l2.675.517 2.14 1.032 1.604 1.55.535 1.549-.535 1.549-2.14 2.582-1.604 2.065-1.07 1.55-1.07 1.549-.535 1.549v8.262z" fill="#C4A060" stroke="#C4A060" stroke-width=".5" stroke-linejoin="round"/><path d="M16.512 32.5l1.604-.516v2.065l-4.279 8.263v4.647l-.535 1.55-1.07 1.548-.534-2.582v-5.163l1.07-3.099 3.744-6.713z" fill="#C4A060"/><path d="M12.233 50.057l-.535-2.582v-5.163l1.07-3.099 3.744-6.713 1.604-.516v2.065l-4.279 8.263v3.098m-1.604 4.647l.534-1.549 1.07-3.098m-1.604 4.647l1.07-1.549.534-1.549v-1.55" stroke="#C4A060" stroke-width=".5" stroke-linejoin="round"/><path d="M81.258 59.475h-1.175v-6.868h1.175v6.868zm-1.27-8.69a.71.71 0 0 1 .171-.482c.119-.131.292-.197.52-.197.23 0 .403.066.521.197a.694.694 0 0 1 .178.483c0 .19-.06.349-.178.475-.118.127-.292.191-.52.191-.229 0-.402-.063-.52-.19a.685.685 0 0 1-.172-.477zm13.666 8.69H92.43v-4.272H87.77v4.272h-1.218v-9.242h1.218v3.974h4.66v-3.974h1.224v9.242zm6.221 0c-.067-.135-.123-.376-.165-.723-.546.567-1.197.85-1.955.85-.677 0-1.233-.19-1.67-.57a1.872 1.872 0 0 1-.647-1.46c0-.716.271-1.27.813-1.664.546-.398 1.312-.597 2.298-.597h1.142v-.54c0-.41-.123-.736-.368-.977-.245-.245-.607-.368-1.085-.368-.42 0-.77.106-1.054.317-.284.212-.425.468-.425.768h-1.181c0-.342.12-.672.362-.99.245-.321.575-.575.99-.761.419-.187.878-.28 1.377-.28.792 0 1.412.2 1.86.597.449.394.682.937.698 1.631v3.161c0 .631.081 1.132.242 1.505v.101h-1.232zm-1.948-.895c.368 0 .717-.095 1.047-.285.33-.19.57-.438.717-.743v-1.41h-.92c-1.44 0-2.159.422-2.159 1.264 0 .368.123.656.369.863.245.208.56.311.946.311zm6.944-.698l1.701-5.275h1.2l-2.463 6.868h-.895l-2.488-6.868h1.199l1.746 5.275zm3.656-1.898c0-1.053.25-1.9.749-2.539.499-.643 1.153-.965 1.962-.965.804 0 1.44.275 1.91.826v-3.58h1.175v9.75h-1.08l-.057-.737c-.469.576-1.123.863-1.961.863-.796 0-1.445-.325-1.949-.977-.499-.652-.749-1.502-.749-2.552v-.089zm1.174.133c0 .78.161 1.389.483 1.829.321.44.766.66 1.333.66.745 0 1.288-.334 1.631-1.003v-3.155c-.351-.647-.891-.971-1.618-.971-.576 0-1.025.222-1.346.666-.322.445-.483 1.103-.483 1.974zm9.769-2.456a3.51 3.51 0 0 0-.577-.044c-.77 0-1.293.328-1.568.983v4.875h-1.174v-6.868h1.142l.019.794c.385-.614.931-.92 1.638-.92.228 0 .402.029.52.088v1.092zm5.326 5.135c-.457.538-1.128.806-2.012.806-.732 0-1.291-.211-1.676-.634-.381-.428-.573-1.058-.577-1.892v-4.469h1.174v4.437c0 1.041.423 1.562 1.269 1.562.898 0 1.494-.334 1.79-1.003v-4.996h1.175v6.868h-1.117l-.026-.679zm8.735-2.678c0 1.045-.24 1.887-.718 2.526-.478.639-1.125.958-1.942.958-.834 0-1.49-.264-1.968-.793v3.307h-1.174v-9.509h1.073l.057.762c.478-.593 1.142-.889 1.993-.889.825 0 1.477.311 1.955.933.482.623.724 1.488.724 2.597v.108zm-1.175-.134c0-.774-.165-1.386-.495-1.834-.33-.449-.783-.673-1.358-.673-.711 0-1.244.315-1.6.946v3.281c.351.627.889.94 1.612.94.563 0 1.01-.222 1.34-.667.334-.448.501-1.113.501-1.993z" fill="#C4A060"/></svg>