<svg width="16" height="16" viewBox="0 0 16 16" fill="none" xmlns="http://www.w3.org/2000/svg">
<circle cx="8" cy="8" r="7.5" stroke="white"/>
<path d="M5.35355 4.64645C5.15829 4.45118 4.84171 4.45118 4.64645 4.64645C4.45118 4.84171 4.45118 5.15829 4.64645 5.35355L5.35355 4.64645ZM8 8L7.64645 8.35355L8 8.70711L8.35355 8.35355L8 8ZM11.3536 5.35355C11.5488 5.15829 11.5488 4.84171 11.3536 4.64645C11.1583 4.45118 10.8417 4.45118 10.6464 4.64645L11.3536 5.35355ZM8.35355 8.35355L9.85355 6.85355L9.14645 6.14645L7.64645 7.64645L8.35355 8.35355ZM9.85355 6.85355L11.3536 5.35355L10.6464 4.64645L9.14645 6.14645L9.85355 6.85355ZM4.64645 5.35355L6.14645 6.85355L6.85355 6.14645L5.35355 4.64645L4.64645 5.35355ZM6.14645 6.85355L7.64645 8.35355L8.35355 7.64645L6.85355 6.14645L6.14645 6.85355Z" fill="white"/>
<path d="M5.35355 7.64645C5.15829 7.45118 4.84171 7.45118 4.64645 7.64645C4.45118 7.84171 4.45118 8.15829 4.64645 8.35355L5.35355 7.64645ZM8 11L7.64645 11.3536L8 11.7071L8.35355 11.3536L8 11ZM11.3536 8.35355C11.5488 8.15829 11.5488 7.84171 11.3536 7.64645C11.1583 7.45118 10.8417 7.45118 10.6464 7.64645L11.3536 8.35355ZM8.35355 11.3536L9.85355 9.85355L9.14645 9.14645L7.64645 10.6464L8.35355 11.3536ZM9.85355 9.85355L11.3536 8.35355L10.6464 7.64645L9.14645 9.14645L9.85355 9.85355ZM4.64645 8.35355L6.14645 9.85355L6.85355 9.14645L5.35355 7.64645L4.64645 8.35355ZM6.14645 9.85355L7.64645 11.3536L8.35355 10.6464L6.85355 9.14645L6.14645 9.85355Z" fill="white"/>
</svg>
